<svg version="1" xmlns="http://www.w3.org/2000/svg" width="337.333" height="337.333" viewBox="0 0 253.000000 253.000000"><path d="M219.3 24.8c-1 1.1-3.8 4.7-6.3 8.2-8.3 11.6-23.1 21.7-37.5 25.6-4.4 1.1-13.8 1.8-35 2.3-32.3.9-34 1.2-48 8.4-9.8 5.1-24.1 18.8-29.8 28.7-8.5 14.7-11.7 34.8-8.3 51.8l1.7 8.3-8.8 9.3c-9.8 10.4-18.3 21.7-24.8 33.2-7.8 13.7-8.6 19.1-3 21.6 4.1 1.8 6.8-.1 9.4-6.8 3.2-8.4 15.9-27 24.9-36.5l7.8-8.2 3.3 5.1c1.8 2.8 7.7 9.4 13.1 14.6 15.1 14.4 27.9 19.7 48.3 19.8 44.1.1 80-23 100.3-64.7 9.4-19.4 13.4-37.8 13.4-62 0-19.5-2.3-32.9-8.7-49.9-3.8-10.2-7.9-13.1-12-8.8zm6.4 34.1c2.6 13.2 2.4 39.3-.6 53.1-9.1 42.5-39.2 75.7-75.9 83.6-11.6 2.5-26.8 2.9-35.3 1-22.1-4.9-41.7-24.3-47-46.6-1.7-7.1-1.7-21.9 0-29C71.7 100.9 89 82.4 109 75.8c5.7-1.8 9.9-2.2 35.5-2.8 32.1-.9 35-1.3 49-7.9 9.4-4.4 19.1-11.5 24.3-17.7l3.7-4.4 1.2 3.6c.7 2 2.1 7.5 3 12.3z"/><path d="M116.4 100.3c-11.5 5.5-16.6 19-11.5 30.2 2.5 5.6 38.6 42.5 41.5 42.5 3 0 39.9-37.1 42-42.2 2.1-5 2-14.3-.3-19.3-3.1-7-12.3-13.5-18.9-13.5-5.2 0-13 3-18 7l-5 3.9-2.3-2.5c-3.3-3.5-11.7-7.4-17.5-8-3.9-.4-6 0-10 1.9zm14.9 11.8c1.2.6 5.2 4.1 8.9 7.7l6.7 6.6 8-7.7c6.9-6.8 8.3-7.7 11.5-7.7 7.9 0 12.5 5.3 11.1 12.7-.5 3.1-3.3 6.4-15.6 18.8l-14.8 15-14.7-14.5c-8-8-15.2-15.9-16-17.7-3.9-8.9 6-17.7 14.9-13.2z"/></svg>